<?xml version="1.0" standalone="no"?>
<!DOCTYPE svg PUBLIC "-//W3C//DTD SVG 20010904//EN"
 "http://www.w3.org/TR/2001/REC-SVG-20010904/DTD/svg10.dtd">
<svg version="1.0" xmlns="http://www.w3.org/2000/svg"
 width="1024.000000pt" height="1024.000000pt" viewBox="0 0 1024.000000 1024.000000"
 preserveAspectRatio="xMidYMid meet">

<g transform="translate(0.000000,1024.000000) scale(0.100000,-0.100000)"
fill="#000000" stroke="none">
<path d="M3628 8475 c-2 -1 -59 -5 -128 -8 -221 -10 -482 -74 -675 -167 -212
-102 -420 -283 -543 -473 -65 -101 -149 -273 -139 -284 3 -2 8 6 12 19 35 110
207 382 229 361 3 -3 8 2 12 11 3 9 12 16 20 16 8 0 14 4 14 10 0 5 5 9 12 7
6 -1 17 9 25 23 7 14 13 19 13 12 0 -17 37 -7 65 18 11 10 29 20 40 22 11 2
19 9 18 15 -1 7 6 9 19 5 18 -4 20 -2 14 14 -4 10 -4 15 0 11 4 -4 12 -3 18 1
14 11 141 53 153 51 4 -1 21 -1 36 0 20 1 26 5 21 14 -5 8 -2 8 9 -2 13 -10
20 -11 31 -2 8 7 35 13 60 14 25 1 46 5 46 9 0 4 7 5 15 1 10 -3 15 0 13 8 -2
8 3 13 10 11 6 -1 12 4 12 10 0 9 4 8 10 -2 5 -8 10 -10 10 -4 0 7 8 15 18 19
41 17 149 24 171 11 6 -4 31 -4 54 0 23 4 45 7 50 6 4 -1 7 2 7 7 0 5 11 8 24
5 14 -2 28 0 31 6 3 5 15 10 26 10 10 0 19 3 19 8 0 4 12 8 28 8 71 4 98 7
107 13 6 3 18 6 28 7 9 1 20 3 25 4 4 1 14 3 22 4 8 0 14 9 14 18 -1 10 2 15
7 12 5 -3 9 7 9 21 0 19 5 25 18 23 11 -2 17 3 16 15 -2 23 0 22 32 -10 22
-22 36 -26 88 -28 33 -1 67 3 75 9 11 8 13 8 7 -1 -4 -7 -2 -13 3 -13 6 0 11
5 11 10 0 10 41 7 59 -5 5 -3 13 0 18 7 4 7 22 14 38 14 62 3 165 13 172 17 4
2 56 4 116 3 59 -2 107 0 107 4 0 6 34 8 232 13 49 1 88 4 88 7 0 6 104 14
150 12 14 -1 34 -1 45 -1 11 1 62 2 113 3 50 0 92 4 92 8 0 4 10 4 23 -1 12
-5 76 -9 142 -9 211 0 588 -14 770 -27 50 -3 137 -8 195 -9 70 -2 118 -8 143
-19 21 -9 35 -11 31 -5 -4 6 -1 8 7 4 8 -3 22 -9 32 -12 9 -4 17 -10 17 -14 0
-5 11 -7 25 -5 14 1 25 -2 25 -7 0 -5 4 -7 9 -3 6 3 19 -4 29 -15 18 -19 21
-20 35 -5 9 8 18 11 21 6 6 -10 -78 -62 -159 -98 -27 -12 -45 -22 -39 -23 19
0 84 29 167 77 75 42 79 43 108 29 17 -8 37 -12 45 -9 7 3 14 1 14 -4 0 -5 22
-9 48 -10 27 0 62 -7 79 -15 22 -11 36 -12 48 -5 13 7 21 6 29 -5 7 -9 25 -13
49 -12 21 2 37 -2 37 -8 0 -6 9 -8 21 -5 12 3 22 0 26 -9 3 -8 9 -11 14 -8 5
3 9 0 9 -6 0 -6 5 -8 10 -5 6 3 10 1 10 -5 0 -6 5 -8 12 -4 7 4 8 3 4 -5 -6
-8 0 -10 18 -6 14 3 37 7 51 10 14 3 25 2 25 -3 0 -4 -10 -9 -22 -9 -49 -4
-107 -41 -201 -126 -54 -50 -107 -104 -118 -121 -12 -17 4 -5 34 27 55 58 143
127 162 127 5 0 36 18 68 40 65 44 114 58 146 41 11 -6 24 -10 28 -9 4 1 19
-4 32 -11 13 -7 38 -15 55 -17 17 -2 37 -5 44 -6 6 -1 12 -5 12 -10 0 -4 7 -8
16 -8 8 0 25 -5 37 -12 24 -13 33 -16 62 -20 11 -2 26 -9 34 -16 7 -7 20 -11
27 -8 8 3 14 1 14 -5 0 -16 30 -43 52 -46 10 -2 29 -13 41 -26 12 -12 28 -23
36 -25 19 -4 41 -34 34 -46 -4 -5 -1 -6 5 -2 10 6 18 -2 82 -87 37 -49 112
-195 140 -275 13 -34 25 -60 27 -58 15 15 -100 257 -176 371 -64 98 -239 272
-336 335 -218 142 -483 233 -779 270 -61 7 -599 12 -1673 14 -870 2 -1584 2
-1585 1z m3047 -144 c3 -5 2 -12 -3 -15 -5 -3 -9 1 -9 9 0 17 3 19 12 6z"/>
<path d="M6687 8246 c-29 -30 -60 -70 -70 -88 l-19 -33 28 35 c16 19 51 59 78
88 27 28 46 52 42 52 -4 0 -31 -24 -59 -54z"/>
<path d="M6468 8193 c7 -3 16 -2 19 1 4 3 -2 6 -13 5 -11 0 -14 -3 -6 -6z"/>
<path d="M7165 8150 c-3 -5 -2 -10 4 -10 5 0 13 5 16 10 3 6 2 10 -4 10 -5 0
-13 -4 -16 -10z"/>
<path d="M7044 8074 c-49 -30 -93 -60 -99 -67 -5 -6 4 -2 20 8 17 11 66 41
109 67 44 26 75 48 69 48 -5 0 -50 -25 -99 -56z"/>
<path d="M6925 7817 l-40 -22 34 -3 c37 -4 73 20 56 37 -6 6 -25 1 -50 -12z"/>
<path d="M6425 7823 c-45 -6 -125 -33 -125 -43 0 -4 21 -1 48 7 26 9 79 21
117 28 53 9 60 12 30 12 -22 0 -53 -2 -70 -4z"/>
<path d="M3427 7732 c-32 -3 -36 -6 -26 -18 16 -20 5 -29 -13 -10 -11 11 -40
14 -126 13 -74 -1 -108 -5 -101 -12 6 -6 52 -9 105 -8 l94 2 -4 -122 c-2 -67
-5 -173 -5 -235 -1 -74 -5 -111 -11 -107 -26 16 -127 257 -165 393 -10 34 -23
62 -30 62 -8 0 -11 8 -8 20 7 27 2 25 -40 -14 -35 -32 -165 -86 -210 -86 -21
0 -23 -36 -3 -59 12 -14 7 -27 -39 -98 -29 -45 -69 -101 -89 -123 -41 -45 -41
-46 -22 -66 25 -25 34 -217 12 -266 -6 -13 2 -21 34 -38 22 -11 58 -37 80 -56
34 -31 38 -39 30 -60 -8 -20 -6 -25 14 -30 34 -8 64 -44 86 -102 l20 -52 -23
-4 c-12 -3 -55 -10 -95 -16 -76 -11 -104 -22 -169 -65 -32 -22 -44 -25 -92
-19 -50 5 -60 3 -94 -20 -21 -14 -55 -35 -76 -46 -50 -25 -89 -72 -103 -125
-11 -41 -14 -44 -72 -61 -67 -21 -122 -67 -155 -132 -11 -21 -36 -51 -55 -66
l-36 -27 0 -135 c0 -75 3 -134 8 -132 327 164 501 228 737 273 11 2 59 28 105
56 182 112 321 166 523 204 67 13 103 23 80 23 -49 -2 -60 7 -117 97 -49 76
-58 82 -71 45 -7 -21 -9 30 -8 182 1 116 6 214 10 218 15 14 117 39 208 51
101 13 340 7 397 -10 28 -9 38 -18 42 -39 3 -15 8 -144 11 -287 4 -143 7 -261
8 -261 7 -7 165 -39 162 -34 -3 5 -27 13 -55 20 l-50 12 30 30 c17 16 30 32
30 34 0 3 -17 13 -38 22 -36 16 -38 20 -40 67 -2 39 0 47 9 35 9 -12 10 -11 4
5 -21 59 -27 108 -14 116 11 7 10 9 -3 9 -22 0 -32 16 -10 18 56 3 261 -22
332 -41 l84 -22 9 -45 c4 -25 7 -82 5 -126 l-3 -81 90 -6 c50 -4 124 -16 165
-29 84 -25 98 -25 505 -11 l260 10 -211 1 c-175 2 -213 5 -230 18 -16 13 -16
15 -1 10 10 -3 17 0 17 9 0 9 -20 15 -67 20 -120 13 -96 20 60 19 84 -1 143 2
132 6 -107 40 -201 79 -255 104 -36 16 -69 31 -75 32 -22 4 -237 154 -222 154
10 0 17 4 17 9 0 13 -102 101 -117 101 -7 0 -13 5 -13 10 0 18 40 -9 110 -75
37 -34 77 -68 89 -75 31 -16 -120 127 -178 168 -25 19 -70 45 -99 59 -47 21
-59 23 -99 15 -42 -9 -49 -8 -85 18 -38 28 -147 60 -205 60 -20 0 -44 15 -84
53 -54 50 -56 55 -74 139 -10 49 -16 106 -13 132 5 38 2 48 -12 56 -10 5 -46
42 -80 81 -56 65 -61 75 -55 106 3 18 3 33 0 33 -8 0 -41 -35 -47 -51 -5 -12
-75 -101 -222 -284 -59 -72 -61 -75 -53 -53 9 25 64 342 72 411 l6 57 29 -20
c43 -30 162 -81 177 -76 25 10 13 24 -27 31 -64 11 -158 62 -162 88 -3 19 -8
22 -41 19z m-308 -336 l195 -194 -40 0 c-35 0 -180 34 -379 89 -38 10 -80 19
-92 19 -22 0 -31 14 -15 24 4 2 34 47 67 100 l59 96 105 -103 c131 -126 240
-221 246 -215 3 3 -30 36 -72 74 -104 91 -303 286 -303 296 0 31 60 -18 229
-186z m574 117 c12 -16 41 -49 64 -74 24 -25 43 -49 43 -52 0 -3 -33 -15 -72
-27 -40 -12 -89 -30 -108 -40 -33 -17 -181 -133 -206 -162 -20 -23 -56 -50
-60 -45 -3 3 11 21 30 42 57 60 63 71 27 46 -48 -34 -30 -7 63 98 41 46 101
119 133 162 32 43 60 78 62 79 2 0 13 -12 24 -27z m127 -152 c0 -5 -10 -11
-22 -14 -22 -6 -22 -6 -4 8 23 17 26 18 26 6z m8 -103 c7 -40 15 -85 18 -100
6 -26 1 -24 -92 39 -55 36 -98 68 -98 72 2 8 125 60 144 61 11 0 19 -19 28
-72z m-866 -14 c98 -30 127 -42 93 -38 -44 5 -140 27 -230 53 -16 5 -43 12
-58 15 -39 9 -24 26 17 19 19 -3 99 -25 178 -49z m648 17 c0 -5 24 -21 53 -35
70 -33 176 -103 223 -147 75 -69 106 -107 95 -113 -6 -4 -21 5 -33 20 -91 109
-131 140 -260 205 -65 32 -98 56 -98 71 0 4 5 8 10 8 6 0 10 -4 10 -9z m-430
-132 c-186 -66 -404 -138 -408 -134 -12 12 203 97 353 141 121 34 159 30 55
-7z m67 -2 c-10 -7 -84 -63 -165 -125 -81 -63 -152 -116 -159 -119 -7 -3 -37
17 -67 43 l-55 49 152 51 c84 28 184 65 222 81 73 32 103 40 72 20z m83 -30
c0 -8 -19 -43 -42 -78 -23 -35 -71 -122 -108 -194 -63 -123 -69 -131 -103
-139 -20 -5 -40 -7 -43 -3 -13 13 89 187 175 297 34 44 112 130 118 130 2 0 3
-6 3 -13z m547 -51 c32 -28 35 -46 8 -46 -7 0 -20 6 -27 13 -7 7 -25 20 -40
30 -16 10 -28 22 -28 27 0 19 56 4 87 -24z m440 -142 c-3 -3 -12 -4 -19 -1 -8
3 -5 6 6 6 11 1 17 -2 13 -5z m108 -22 c-3 -3 -11 0 -18 7 -9 10 -8 11 6 5 10
-3 15 -9 12 -12z m-125 -27 c14 -19 14 -19 -2 -6 -10 7 -18 18 -18 24 0 6 1 8
3 6 1 -2 9 -13 17 -24z m6 -87 l19 -23 -25 20 c-14 11 -27 21 -29 22 -2 2 0 3
6 3 5 0 18 -10 29 -22z m-1426 -158 c0 -5 -4 -10 -10 -10 -5 0 -10 5 -10 10 0
6 5 10 10 10 6 0 10 -4 10 -10z m-15 -100 c17 -7 16 -9 -10 -9 -16 0 -39 4
-50 9 -17 7 -16 9 10 9 17 0 39 -4 50 -9z"/>
<path d="M2905 7570 c3 -5 8 -10 11 -10 2 0 4 5 4 10 0 6 -5 10 -11 10 -5 0
-7 -4 -4 -10z"/>
<path d="M6672 7714 c-12 -8 -22 -23 -22 -32 0 -13 6 -11 27 10 31 31 28 45
-5 22z"/>
<path d="M7220 7529 c0 -18 -41 -59 -58 -59 -7 0 -12 -4 -12 -10 0 -5 5 -10
11 -10 6 0 27 -17 45 -37 29 -31 34 -34 34 -17 0 25 29 54 56 55 13 0 9 5 -13
15 -18 8 -33 20 -33 27 0 7 -7 22 -15 33 -12 15 -14 16 -15 3z"/>
<path d="M8191 7424 c0 -11 3 -14 6 -6 3 7 2 16 -1 19 -3 4 -6 -2 -5 -13z"/>
<path d="M7074 7325 c-103 -22 -191 -72 -274 -155 -83 -83 -121 -148 -149
-257 -11 -41 -28 -80 -43 -96 l-25 -27 -91 16 c-100 17 -127 11 -196 -41 -18
-14 -57 -39 -87 -56 -48 -27 -40 -34 15 -13 9 3 16 1 16 -5 0 -6 -1 -11 -2
-11 -2 0 -28 -9 -58 -20 -55 -19 -55 -19 -18 -19 28 -1 36 -5 32 -15 -3 -8
-18 -16 -32 -18 -15 -2 56 -7 157 -12 178 -8 217 -19 105 -30 -27 -2 -65 -9
-84 -15 -19 -6 -55 -11 -80 -11 -59 0 -90 -9 -90 -26 0 -9 12 -14 38 -14 48 0
83 -10 76 -21 -3 -5 -22 -9 -42 -9 -34 -1 -124 -39 -94 -40 7 0 11 -4 7 -10
-3 -5 9 -14 27 -19 33 -9 33 -9 5 -10 -19 -1 -26 -5 -21 -13 4 -6 3 -8 -4 -4
-6 3 -13 2 -17 -4 -3 -5 -11 -10 -16 -10 -6 0 -7 5 -4 10 10 16 -12 12 -29 -6
-9 -8 -16 -11 -16 -5 0 6 -19 11 -42 10 -36 0 -39 -2 -20 -9 12 -5 29 -7 37
-4 8 4 15 1 15 -5 0 -6 -7 -11 -15 -11 -22 0 -87 -34 -125 -66 -30 -25 -35
-27 -64 -15 -42 17 -206 61 -225 61 -9 -1 36 -17 99 -36 63 -19 127 -38 142
-43 21 -7 30 -5 48 14 37 39 113 74 191 86 49 7 100 25 151 50 94 48 173 69
254 69 l63 0 3 165 c3 189 2 186 98 223 183 72 533 98 785 61 107 -16 317 -68
342 -84 22 -15 23 -20 23 -175 0 -103 -4 -168 -12 -186 -11 -24 -16 -26 -61
-21 -27 2 -53 10 -57 17 -6 10 -9 9 -13 -1 -3 -8 -6 40 -6 106 -1 92 -5 126
-17 143 -19 27 -48 28 -74 2 -18 -18 -20 -33 -20 -144 l0 -123 -52 -8 c-29 -4
-63 -8 -75 -9 -13 0 -23 -5 -23 -10 0 -5 17 -6 38 -2 156 29 272 26 415 -10
91 -23 131 -50 135 -93 2 -22 13 -42 31 -57 40 -33 54 -75 49 -139 -4 -45 -2
-55 11 -55 9 0 46 -11 84 -24 l67 -23 0 122 0 122 -35 46 c-27 36 -48 51 -93
67 -50 18 -61 27 -78 63 -33 71 -73 89 -161 73 l-43 -8 0 156 c0 159 0 160
-43 189 -10 7 -24 39 -33 76 -23 99 -77 193 -151 260 -145 134 -353 189 -549
146z m151 -15 c-27 -4 -40 -8 -28 -8 31 -3 71 -22 77 -38 3 -7 -2 -18 -10 -24
-8 -7 -14 -19 -14 -26 0 -8 -4 -14 -8 -14 -5 0 -24 -14 -42 -30 -19 -17 -40
-28 -47 -25 -8 2 -16 -2 -19 -10 -7 -18 -44 -20 -44 -2 0 9 -2 9 -9 -1 -6 -11
-11 -10 -25 3 -9 9 -16 12 -16 5 0 -14 -19 -33 -50 -50 -21 -11 -26 -10 -41 9
-10 13 -15 30 -11 43 5 21 4 22 -13 8 -17 -14 -18 -14 -8 4 8 15 7 23 -4 35
-14 13 -13 17 8 34 13 11 23 25 21 31 -2 6 -1 8 3 4 4 -4 13 -1 21 6 12 12 85
38 139 49 11 3 54 4 95 4 70 0 72 -1 25 -7z m88 -17 c-7 -2 -19 -2 -25 0 -7 3
-2 5 12 5 14 0 19 -2 13 -5z m-848 -503 c13 -5 2 -7 -30 -3 -44 4 -57 0 -110
-32 -34 -20 -51 -27 -40 -16 48 48 131 72 180 51z"/>
<path d="M3737 6913 c-4 -3 -7 -42 -7 -85 l0 -78 35 0 35 0 0 59 c0 73 -13
111 -38 111 -10 0 -22 -3 -25 -7z"/>
<path d="M7126 6751 c-15 -16 -19 -47 -23 -175 l-6 -156 82 0 82 0 -3 161 c-3
145 -5 162 -22 175 -29 21 -89 18 -110 -5z"/>
<path d="M6752 6708 c-8 -8 -12 -55 -12 -145 l0 -133 50 0 50 0 0 120 c0 115
-1 122 -25 145 -27 28 -45 31 -63 13z"/>
<path d="M4750 6641 c19 -17 39 -31 43 -31 5 0 6 -4 3 -9 -3 -5 2 -15 12 -22
15 -12 16 -12 5 2 -7 9 -10 18 -7 21 3 4 -16 20 -43 38 l-48 32 35 -31z"/>
<path d="M3734 6600 c-5 -5 -8 -59 -6 -119 l3 -111 61 0 60 0 -4 90 c-3 80 -6
92 -28 114 -28 27 -72 40 -86 26z m98 -158 c2 -28 0 -52 -4 -52 -5 0 -7 33 -7
73 2 76 6 68 11 -21z"/>
<path d="M4827 6589 c7 -7 15 -10 18 -7 3 3 -2 9 -12 12 -14 6 -15 5 -6 -5z"/>
<path d="M4209 6503 c1 -49 5 -90 8 -93 11 -12 38 20 37 46 -3 100 -13 134
-38 134 -8 0 -10 -27 -7 -87z"/>
<path d="M4923 6573 c9 -2 23 -2 30 0 6 3 -1 5 -18 5 -16 0 -22 -2 -12 -5z"/>
<path d="M7433 6485 c0 -27 2 -38 4 -22 2 15 2 37 0 50 -2 12 -4 0 -4 -28z"/>
<path d="M7800 6465 c0 -8 2 -15 4 -15 2 0 6 7 10 15 3 8 1 15 -4 15 -6 0 -10
-7 -10 -15z"/>
<path d="M5858 6403 c12 -2 30 -2 40 0 9 3 -1 5 -23 4 -22 0 -30 -2 -17 -4z"/>
<path d="M7315 6345 c-68 -37 -92 -76 -102 -166 l-6 -61 -37 6 c-20 3 -82 9
-138 12 l-103 7 -29 40 c-52 70 -56 72 -245 75 -189 4 -530 -12 -587 -28 -48
-14 -78 -61 -78 -124 0 -25 -2 -46 -5 -46 -2 0 -30 16 -61 36 -233 149 -538
182 -1124 123 -113 -11 -280 -33 -373 -49 l-167 -27 -73 38 c-249 130 -696
130 -1027 0 -446 -175 -761 -562 -821 -1008 -16 -121 -6 -326 20 -427 64 -243
223 -427 474 -551 218 -107 400 -140 722 -132 162 4 242 11 350 30 212 38 333
70 799 211 152 47 510 136 697 175 468 98 1021 144 1327 110 560 -60 968 -306
1031 -620 11 -53 6 -129 -13 -184 -6 -18 -5 -17 10 3 18 25 62 30 70 8 8 -22
-23 -134 -51 -185 -14 -24 -24 -46 -22 -47 8 -9 147 136 170 176 67 117 75
284 20 402 -39 83 -100 150 -167 183 l-51 26 45 -6 c63 -8 180 -66 233 -114
67 -62 99 -129 106 -225 l6 -81 29 64 c67 151 35 324 -86 456 -83 91 -221 155
-336 155 -65 0 -66 15 -2 48 33 16 61 22 112 22 187 0 346 -86 399 -216 l20
-49 -4 58 c-6 89 -78 228 -159 303 -91 84 -256 153 -365 154 -20 0 -33 5 -33
13 0 6 30 113 66 237 229 790 278 1006 245 1068 -16 30 -82 47 -306 82 -261
40 -342 46 -380 25z m183 -110 c125 -19 341 -60 347 -67 5 -4 -308 -1065 -321
-1086 0 -1 -39 4 -85 12 -46 8 -106 12 -132 9 l-49 -6 7 109 c22 394 65 832
96 992 12 60 4 57 137 37z m-3578 -100 c265 -66 472 -280 542 -563 30 -120 32
-352 4 -462 -105 -409 -421 -701 -855 -790 -118 -24 -328 -29 -431 -10 -317
57 -531 238 -624 525 -49 152 -57 276 -30 436 34 199 121 371 263 522 180 191
397 300 721 361 56 10 346 -3 410 -19z m2835 -7 c3 -7 29 -132 59 -278 105
-509 138 -665 191 -894 29 -127 52 -233 50 -234 -2 -2 -74 1 -161 7 -86 6
-186 11 -220 11 -58 0 -64 2 -69 23 -3 12 -18 85 -35 161 -16 77 -32 141 -34
143 -7 8 -489 -26 -498 -35 -4 -4 -31 -75 -60 -157 -28 -83 -52 -151 -52 -151
-1 -2 -322 -44 -334 -44 -5 0 47 114 116 253 68 138 162 333 209 432 145 306
263 625 263 711 0 40 1 41 220 53 248 13 350 13 355 -1z m-1240 -27 c163 -43
280 -123 332 -229 23 -48 28 -72 31 -157 4 -88 1 -110 -23 -180 -66 -199 -216
-342 -447 -426 -79 -29 -320 -89 -358 -89 -16 0 -18 -18 -25 -199 l-7 -198
-127 -28 c-69 -15 -159 -36 -200 -46 -41 -10 -79 -19 -84 -19 -5 0 -6 40 -3
98 11 162 36 877 36 1031 0 120 -2 142 -14 138 -8 -3 -30 -9 -49 -12 l-34 -7
-6 49 c-3 26 -11 85 -18 131 -7 45 -9 85 -6 89 12 12 342 62 507 77 25 2 128
2 230 1 147 -3 201 -8 265 -24z m1936 -1144 c89 -47 130 -150 95 -242 -65
-170 -315 -161 -374 14 -55 162 125 309 279 228z m-3140 -487 c30 -16 26 -77
-6 -92 -60 -27 -104 59 -45 89 30 15 27 15 51 3z m469 -40 c0 -5 -4 -10 -10
-10 -5 0 -10 5 -10 10 0 6 5 10 10 10 6 0 10 -4 10 -10z m-176 -29 c10 -15 -4
-39 -25 -44 -28 -7 -38 22 -14 39 22 16 32 17 39 5z m-425 -110 c48 -48 -28
-130 -82 -88 -9 6 -19 24 -22 39 -13 54 63 90 104 49z"/>
<path d="M3468 5845 c-148 -55 -298 -257 -359 -486 -31 -117 -32 -319 -1 -432
45 -164 142 -285 257 -322 182 -57 392 57 494 267 61 125 76 210 76 418 0 197
-11 256 -70 375 -66 136 -154 195 -285 194 -41 0 -92 -7 -112 -14z m45 -612
c-7 -2 -21 -2 -30 0 -10 3 -4 5 12 5 17 0 24 -2 18 -5z m0 -50 c-7 -2 -21 -2
-30 0 -10 3 -4 5 12 5 17 0 24 -2 18 -5z m262 -13 c3 -5 1 -10 -4 -10 -6 0
-11 5 -11 10 0 6 2 10 4 10 3 0 8 -4 11 -10z m-118 -16 c-3 -3 -12 -4 -19 -1
-8 3 -5 6 6 6 11 1 17 -2 13 -5z m-294 -26 c-2 -5 -23 -8 -46 -7 -35 1 -38 2
-17 8 31 10 70 8 63 -1z m0 -35 c-7 -2 -21 -2 -30 0 -10 3 -4 5 12 5 17 0 24
-2 18 -5z m192 -28 l-30 -14 37 -1 c33 0 64 -16 35 -17 -7 -1 -61 -6 -121 -12
-60 -6 -112 -9 -114 -6 -3 3 3 5 14 5 18 1 18 1 1 11 -10 6 -25 8 -33 5 -8 -3
-14 -1 -14 5 0 6 19 10 43 9 87 -4 153 1 132 9 -19 8 -18 9 5 13 14 3 36 6 50
6 24 0 24 0 -5 -13z m-288 -27 c-3 -7 -5 -2 -5 12 0 14 2 19 5 13 2 -7 2 -19
0 -25z m623 -55 c0 -8 -9 -17 -20 -20 -11 -3 -20 -11 -20 -18 0 -17 -23 -25
-77 -25 -26 0 -51 6 -59 15 -18 17 -163 20 -279 5 -48 -6 -72 -5 -76 2 -4 6
-18 8 -33 4 -22 -5 -26 -11 -21 -29 8 -28 41 -73 52 -70 11 2 112 5 143 4 18
-1 21 -4 12 -13 -6 -6 -41 -12 -77 -12 -48 -1 -64 -4 -60 -13 2 -7 1 -13 -3
-13 -11 0 -78 102 -90 137 l-11 32 132 1 c73 0 157 6 187 13 30 6 110 13 178
13 102 2 122 -1 122 -13z m-425 -63 c3 -5 -2 -10 -12 -10 -10 0 -36 -3 -58 -6
-28 -5 -37 -3 -30 4 9 9 27 14 82 21 6 0 15 -3 18 -9z m-30 -158 c-3 -3 -11 0
-18 7 -9 10 -8 11 6 5 10 -3 15 -9 12 -12z"/>
<path d="M6271 5544 c-51 -146 -91 -267 -89 -269 2 -2 71 2 154 8 l150 12 -55
258 c-31 141 -58 257 -61 257 -3 0 -47 -120 -99 -266z"/>
<path d="M5114 5883 c-29 -4 -32 -8 -38 -46 -8 -60 -30 -566 -25 -571 11 -10
130 18 186 43 123 58 182 148 191 292 6 113 -15 185 -69 233 -55 51 -124 64
-245 49z"/>
<path d="M5493 6333 c9 -2 25 -2 35 0 9 3 1 5 -18 5 -19 0 -27 -2 -17 -5z"/>
<path d="M5563 6323 c9 -2 23 -2 30 0 6 3 -1 5 -18 5 -16 0 -22 -2 -12 -5z"/>
<path d="M5883 6283 c9 -2 23 -2 30 0 6 3 -1 5 -18 5 -16 0 -22 -2 -12 -5z"/>
<path d="M8066 5938 c-10 -44 -15 -82 -13 -84 3 -3 10 24 18 60 18 92 18 92
80 68 30 -11 63 -23 74 -27 46 -15 -13 15 -76 38 l-66 25 -17 -80z"/>
<path d="M2460 5910 c-8 -5 -10 -10 -5 -10 6 0 17 5 25 10 8 5 11 10 5 10 -5
0 -17 -5 -25 -10z"/>
<path d="M2559 5883 l-24 -28 28 24 c25 23 32 31 24 31 -2 0 -14 -12 -28 -27z"/>
<path d="M2370 5875 c-14 -8 -20 -14 -15 -14 6 0 21 6 35 14 14 8 21 14 15 14
-5 0 -21 -6 -35 -14z"/>
<path d="M2250 5819 c-92 -50 -175 -112 -191 -142 -7 -12 15 3 48 33 32 30 99
76 149 102 49 26 85 48 79 48 -5 0 -44 -19 -85 -41z"/>
<path d="M2519 5833 c-13 -16 -12 -17 4 -4 9 7 17 15 17 17 0 8 -8 3 -21 -13z"/>
<path d="M2489 5793 c-13 -16 -12 -17 4 -4 9 7 17 15 17 17 0 8 -8 3 -21 -13z"/>
<path d="M2218 4724 c-149 -205 -194 -526 -113 -809 14 -49 47 -135 75 -190
167 -338 529 -586 990 -679 258 -52 475 -59 793 -26 298 30 466 68 740 165
294 103 377 151 960 555 43 30 -99 -122 -163 -174 -96 -78 -283 -211 -359
-255 -135 -79 -331 -171 -494 -231 -92 -35 -166 -65 -164 -66 7 -7 255 80 336
117 90 42 102 46 83 27 -7 -7 -12 -19 -12 -27 0 -11 5 -8 16 8 13 18 24 22 51
19 28 -3 32 -2 19 7 -13 10 -10 14 24 25 22 7 40 17 40 22 0 4 8 8 18 8 10 0
39 14 65 30 26 17 52 30 57 30 5 0 14 9 19 19 6 10 32 26 58 35 50 17 62 16
38 -4 -8 -7 -15 -17 -15 -23 0 -7 4 -7 12 1 7 7 16 12 22 12 6 0 5 -5 -2 -12
-7 -7 -12 -20 -12 -31 0 -10 -4 -16 -8 -13 -5 3 -21 -8 -36 -25 -15 -16 -32
-29 -37 -29 -6 0 -7 -5 -4 -10 4 -7 14 -6 28 1 21 9 21 9 4 -5 -11 -8 -26 -12
-35 -9 -12 5 -14 2 -9 -11 4 -10 3 -15 -3 -11 -6 3 -23 -3 -39 -14 -16 -12
-32 -21 -35 -21 -4 0 -29 -16 -57 -35 -28 -19 -56 -35 -61 -35 -6 0 -8 -6 -5
-14 8 -20 -178 -114 -356 -180 -149 -55 -311 -101 -327 -91 -4 3 -73 -6 -152
-20 -176 -32 -378 -55 -478 -55 -205 0 -634 49 -688 79 -7 4 47 6 120 3 263
-9 725 35 869 82 24 7 58 17 74 22 l30 8 -40 7 -40 7 47 -1 c28 -1 43 2 38 7
-5 5 -93 4 -213 -4 -437 -28 -725 5 -1027 117 -289 107 -494 248 -635 434 -41
55 -89 128 -107 162 -17 34 -34 64 -38 67 -4 3 -10 14 -13 25 -14 50 7 -78 24
-147 64 -259 245 -530 474 -713 240 -193 522 -304 850 -335 150 -14 3295 -14
3471 0 315 26 573 116 805 282 212 152 389 382 473 617 15 41 25 76 23 78 -3
2 -19 -37 -37 -86 -17 -49 -58 -132 -91 -183 -61 -97 -143 -201 -152 -192 -3
3 -17 -11 -32 -31 -15 -19 -30 -33 -32 -31 -3 3 -15 -5 -27 -18 -27 -28 -56
-40 -56 -22 0 9 -12 7 -44 -8 -27 -12 -42 -25 -39 -33 4 -9 -5 -13 -30 -13
-43 0 -69 -9 -61 -22 4 -5 -23 -7 -68 -4 -40 2 -73 5 -73 6 0 4 -85 10 -168
12 -86 3 -89 2 -111 -24 -12 -16 -31 -28 -43 -28 -12 0 -24 -4 -28 -9 -3 -6
-26 -13 -52 -17 -29 -4 -56 -16 -70 -30 -13 -13 -30 -24 -37 -24 -18 0 -43 49
-29 58 6 4 7 16 3 27 -7 19 -7 19 -21 -3 -16 -25 -59 -30 -59 -7 0 21 -17 19
-30 -5 -7 -13 -21 -20 -40 -20 -16 0 -48 -7 -70 -16 -23 -9 -43 -14 -46 -11
-7 7 28 47 41 47 6 0 20 7 31 15 21 16 -37 -2 -381 -119 -335 -114 -548 -171
-602 -161 -18 3 -33 2 -33 -2 0 -4 -16 -8 -35 -8 -51 0 -31 10 80 40 126 34
509 167 722 251 88 35 201 77 250 94 209 74 386 132 426 140 36 7 33 8 -25 4
-65 -4 -98 -11 -108 -24 -9 -11 -281 -100 -275 -90 8 14 -39 10 -106 -7 -31
-8 -67 -13 -80 -11 -21 3 -17 7 28 31 29 15 60 27 68 27 9 0 14 4 11 9 -3 5 1
12 10 15 10 4 13 2 8 -6 -4 -6 8 0 27 14 41 32 182 66 344 84 106 12 111 39
10 49 -72 8 -163 -5 -263 -37 -35 -11 -66 -18 -69 -15 -3 4 6 9 21 13 14 3 35
17 45 30 10 13 23 24 28 24 5 0 10 7 10 15 0 22 -25 18 -32 -4 -7 -22 -35 -37
-35 -19 0 9 -3 9 -12 0 -15 -15 -28 -16 -28 -2 0 13 135 76 215 100 104 32
221 43 305 29 67 -11 178 -61 237 -106 19 -14 35 -24 38 -22 8 9 -122 90 -186
117 -57 24 -76 26 -179 26 -201 -2 -274 -30 -745 -290 -420 -231 -664 -335
-950 -405 -219 -53 -209 -34 25 45 292 99 459 169 651 272 170 91 447 252 659
384 286 178 392 239 461 264 76 28 171 37 222 23 28 -8 28 -8 11 17 -21 33
-105 74 -180 88 -116 21 -275 -31 -449 -147 -95 -63 -160 -113 -451 -344 -304
-242 -448 -334 -684 -437 -63 -28 -151 -61 -195 -73 -44 -13 -101 -29 -127
-37 -91 -27 -82 -13 17 27 245 99 315 129 401 171 98 49 242 145 256 171 9 19
9 20 -3 11 -41 -33 -653 -334 -678 -334 -3 0 80 46 184 101 105 55 247 138
316 185 131 88 167 104 234 104 31 0 59 11 115 46 113 69 195 140 420 359 211
206 284 269 394 335 175 107 370 142 510 93 22 -7 41 -11 43 -9 2 2 -29 25
-70 50 -55 34 -101 53 -173 71 -95 25 -99 27 -147 80 -63 71 -158 139 -238
170 -35 13 -55 25 -44 25 47 3 -31 21 -114 26 -146 10 -312 -25 -451 -97 -100
-52 -150 -93 -143 -119 9 -33 -14 -50 -68 -50 -42 0 -51 -4 -70 -29 -46 -63
-159 -100 -204 -67 -15 11 -22 11 -44 0 -34 -18 -83 -18 -128 1 -42 18 -53 30
-53 61 0 17 -5 20 -25 17 -13 -3 -27 -14 -31 -25 -10 -34 -92 -78 -144 -78
-63 0 -85 18 -82 66 4 52 -3 41 -23 -36 -34 -135 -110 -194 -248 -195 l-79 0
-26 -55 c-26 -53 -32 -60 -50 -60 -4 0 -12 -9 -17 -19 -6 -11 -18 -34 -28 -53
-48 -92 -213 -128 -315 -68 l-35 21 -16 -23 c-65 -93 -190 -134 -287 -93 -19
8 -32 10 -29 5 3 -5 -3 -11 -14 -15 -11 -3 -22 -19 -26 -35 -7 -33 -48 -70
-76 -70 -10 0 -34 8 -54 17 -24 12 -38 14 -43 7 -4 -6 -28 -27 -54 -47 -58
-43 -138 -63 -194 -48 -52 14 -95 58 -88 88 l6 23 -43 -20 c-86 -39 -187 -19
-208 42 -12 33 -22 34 -58 11 -26 -17 -27 -17 -20 0 4 10 7 21 7 23 0 2 12 4
26 4 14 0 32 7 40 15 14 13 13 15 -3 15 -10 -1 -36 -7 -58 -15 -77 -28 -163
-15 -217 32 -19 17 -126 34 -134 21 -8 -12 -68 1 -154 34 -192 73 -307 145
-431 268 -92 91 -143 162 -196 277 -46 100 -41 114 6 17 54 -108 65 -122 150
-193 157 -131 431 -258 431 -200 0 8 -4 8 -12 1 -8 -5 -22 -6 -33 -2 -17 7
-16 9 13 15 17 4 32 12 32 17 0 5 -4 6 -10 3 -5 -3 -10 -2 -10 4 0 5 -9 13
-20 16 -11 4 -18 10 -15 15 5 8 -23 25 -37 22 -5 -1 -8 9 -8 23 0 22 -4 25
-40 25 -22 0 -40 5 -40 10 0 12 41 13 72 1 109 -43 320 -82 426 -80 42 1 25 5
-63 14 -241 25 -541 129 -644 223 l-36 34 38 -22 c91 -53 203 -97 216 -85 2 3
2 6 0 8 -2 1 -29 19 -61 39 -179 117 -317 298 -373 491 -16 55 -13 167 4 167
4 0 13 -21 19 -47 30 -112 81 -193 192 -304 96 -97 115 -110 226 -167 120 -61
291 -129 300 -120 2 3 -30 17 -73 32 -165 58 -343 176 -435 288 -98 120 -148
222 -177 367 l-18 83 -35 -48z m-27 -334 l-9 -55 -1 45 c0 25 2 56 6 70 12 41
14 0 4 -60z m-4 -162 c-2 -13 -4 -3 -4 22 0 25 2 35 4 23 2 -13 2 -33 0 -45z
m4808 4 c48 -19 155 -89 155 -102 0 -5 -13 -1 -30 8 -16 9 -30 19 -30 22 0 8
-84 -1 -93 -10 -5 -4 -23 -1 -40 8 -81 41 -484 19 -516 -28 -10 -14 -24 -20
-52 -20 -47 0 -48 7 -10 44 25 24 32 26 51 16 17 -9 25 -9 39 4 29 27 161 66
251 75 105 11 222 4 275 -17z m-12 -149 c-13 -2 -35 -2 -50 0 -16 2 -5 4 22 4
28 0 40 -2 28 -4z m-343 -113 c-25 -21 -50 -38 -56 -36 -6 2 -17 0 -25 -6 -11
-8 -9 -8 5 -4 11 4 -19 -33 -66 -82 -48 -49 -120 -136 -162 -193 -182 -249
-255 -340 -342 -425 -105 -105 -257 -216 -390 -286 -90 -47 -374 -148 -417
-148 -12 0 73 48 188 106 298 151 416 228 594 383 97 84 240 247 365 415 76
102 140 175 197 226 46 41 75 65 65 52 -11 -12 -14 -22 -8 -22 6 0 14 5 18 11
6 11 64 49 74 49 3 0 -15 -18 -40 -40z m-466 -62 c-45 -46 -95 -115 -138 -188
-259 -435 -509 -668 -941 -876 -167 -80 -316 -137 -480 -183 -204 -57 -558
-112 -705 -110 -62 1 -36 6 155 30 127 16 239 34 250 39 24 10 98 31 230 63
134 33 259 71 318 96 55 24 61 25 52 11 -4 -6 5 -5 19 2 14 6 26 17 26 25 0 7
5 13 11 13 5 0 7 -4 4 -10 -10 -16 12 -12 55 10 47 24 51 32 11 20 -16 -4 -33
-5 -37 -2 -4 4 -3 0 1 -8 8 -13 7 -13 -11 0 -10 8 -22 19 -25 24 -4 4 -16 3
-29 -4 -12 -6 -24 -9 -26 -7 -9 9 57 36 74 31 13 -5 14 -4 3 4 -11 8 -7 13 18
26 17 9 31 19 31 21 0 3 -46 -18 -102 -46 -271 -136 -575 -212 -993 -248 -136
-12 -435 -13 -480 -1 -19 5 24 8 110 9 449 4 912 112 1310 306 201 98 352 202
570 395 66 58 172 145 235 192 63 48 129 100 145 115 17 16 47 41 68 57 20 16
37 34 37 41 0 8 35 42 78 76 42 34 85 69 95 77 32 28 17 4 -20 -33 -21 -21
-32 -34 -25 -31 6 4 12 3 12 -1 0 -5 33 24 74 64 41 40 78 73 82 73 4 0 -24
-33 -62 -72z m-558 -3 c10 -26 -5 -62 -28 -68 -47 -13 -77 33 -42 67 20 20 63
21 70 1z m-3041 -13 c-3 -3 -11 0 -18 7 -9 10 -8 11 6 5 10 -3 15 -9 12 -12z
m3164 -31 c17 -11 7 -41 -13 -41 -19 0 -29 17 -22 35 6 17 15 18 35 6z m164
-63 c-17 -18 -33 -46 -35 -62 -2 -16 -9 -31 -16 -34 -7 -2 -10 2 -6 12 3 9 4
16 0 16 -3 0 -54 -48 -114 -108 -108 -107 -200 -188 -205 -181 -4 6 389 389
399 389 4 0 -6 -15 -23 -32z m-552 2 c24 -14 24 -32 -1 -55 -26 -24 -68 -13
-76 20 -3 13 -3 29 1 34 8 14 51 14 76 1z m-151 -125 c17 -20 5 -45 -20 -45
-11 0 -23 7 -26 15 -6 15 11 45 26 45 4 0 13 -7 20 -15z m1334 9 c36 -14 7
-78 -31 -68 -27 7 -30 30 -6 56 18 21 16 20 37 12z m729 -1 c-13 -2 -33 -2
-45 0 -13 2 -3 4 22 4 25 0 35 -2 23 -4z m-273 -68 c0 -2 -10 -9 -22 -15 -22
-11 -22 -10 -4 4 21 17 26 19 26 11z m-929 -44 c-17 -21 -29 -45 -26 -53 8
-19 -32 -68 -55 -68 -10 0 -21 -8 -24 -18 -4 -10 -20 -32 -38 -48 -23 -22 -18
-10 23 46 29 41 56 77 59 80 3 3 23 26 44 53 21 26 40 47 43 47 3 0 -9 -18
-26 -39z m1204 29 c-3 -5 -12 -10 -18 -10 -7 0 -6 4 3 10 19 12 23 12 15 0z
m-110 -53 c-45 -24 -128 -73 -185 -109 -125 -78 -155 -94 -146 -79 10 16 -6
13 -33 -5 -19 -14 -25 -14 -32 -3 -6 10 -3 15 11 17 11 2 20 8 20 13 0 6 4 8
9 5 5 -4 8 5 7 19 -2 13 1 22 5 19 5 -3 9 0 9 7 0 6 8 9 19 6 11 -2 32 4 48
15 15 11 20 18 11 14 -13 -4 -18 0 -18 12 0 25 38 26 45 1 4 -11 9 -19 11 -16
11 10 -11 39 -40 52 -22 11 -24 13 -6 8 14 -3 35 -6 47 -5 11 1 24 -5 27 -13
3 -8 10 -15 16 -15 6 0 8 5 5 10 -3 6 -2 10 4 10 5 0 17 3 27 7 13 5 15 3 9
-8 -8 -12 -6 -12 8 -1 9 8 21 11 27 7 5 -3 10 -1 10 4 0 6 6 11 13 11 7 0 40
13 73 29 90 45 89 36 -1 -12z m-2177 21 c6 -8 6 -22 1 -36 -10 -27 -46 -27
-62 0 -21 33 36 66 61 36z m1912 -18 c0 -5 -5 -10 -11 -10 -5 0 -7 5 -4 10 3
6 8 10 11 10 2 0 4 -4 4 -10z m-4440 -24 c0 -2 3 -11 6 -19 4 -11 -1 -15 -20
-13 -25 1 -34 15 -19 29 7 8 33 10 33 3z m3926 -41 c7 -18 -12 -45 -32 -45
-14 0 -20 41 -7 53 11 12 33 7 39 -8z m353 -48 c-2 -1 -13 -9 -24 -17 -19 -14
-19 -14 -6 3 7 9 18 17 24 17 6 0 8 -1 6 -3z m-3795 -23 c24 -23 4 -54 -34
-54 -17 0 -30 2 -30 4 0 2 -3 11 -6 19 -6 16 20 47 41 47 7 0 21 -7 29 -16z
m1796 -4 c0 -5 -7 -10 -15 -10 -8 0 -15 5 -15 10 0 6 7 10 15 10 8 0 15 -4 15
-10z m-1555 -40 c20 -16 19 -49 -2 -72 -20 -23 -80 -24 -105 -1 -24 22 -23 68
3 86 22 16 78 9 104 -13z m3047 -27 c59 -53 -41 -169 -104 -120 -38 28 -22 89
30 116 46 25 51 25 74 4z m562 -7 c43 16 -1 -18 -79 -61 -11 -6 -32 -19 -47
-29 -16 -10 -28 -16 -28 -13 0 3 22 19 50 37 27 18 47 36 44 41 -3 5 1 6 9 3
8 -3 18 -1 22 5 3 6 1 11 -4 11 -6 0 -11 5 -11 11 0 8 4 8 14 0 7 -6 21 -9 30
-5z m-2290 -72 c10 -4 16 -18 16 -35 0 -22 -6 -32 -25 -39 -28 -10 -54 -4 -56
14 -5 51 22 76 65 60z m2196 -119 c0 -2 -18 -14 -40 -25 -22 -11 -40 -18 -40
-15 0 2 17 13 38 24 42 23 42 23 42 16z m-1553 -31 c-12 -12 -112 -74 -119
-74 -15 0 -8 10 20 25 15 9 41 24 57 35 29 18 55 27 42 14z m-2207 -240 c0
-17 -22 -14 -28 4 -2 7 3 12 12 12 9 0 16 -7 16 -16z m3550 -158 c0 -11 -19
-15 -25 -6 -3 5 1 10 9 10 9 0 16 -2 16 -4z m255 -6 c3 -5 -1 -10 -10 -10 -9
0 -13 5 -10 10 3 6 8 10 10 10 2 0 7 -4 10 -10z m245 1 c0 -6 -4 -13 -10 -16
-5 -3 -10 1 -10 9 0 9 5 16 10 16 6 0 10 -4 10 -9z m235 -11 c8 -13 -17 -23
-47 -18 l-23 5 25 11 c32 14 37 14 45 2z m-930 -75 c0 -15 -8 -21 -32 -23 -27
-3 -33 0 -33 17 0 21 15 31 45 28 13 -1 20 -9 20 -22z"/>
<path d="M6688 4223 c6 -2 18 -2 25 0 6 3 1 5 -13 5 -14 0 -19 -2 -12 -5z"/>
<path d="M6521 4187 c-17 -4 -31 -9 -31 -12 0 -6 103 7 118 15 18 9 -49 7 -87
-3z"/>
<path d="M6459 3833 l-34 -38 38 34 c34 33 42 41 34 41 -2 0 -19 -17 -38 -37z"/>
<path d="M6035 3769 c-4 -6 -5 -12 -2 -15 2 -3 7 2 10 11 7 17 1 20 -8 4z"/>
<path d="M5060 2950 c-9 -6 -10 -10 -3 -10 6 0 15 5 18 10 8 12 4 12 -15 0z"/>
<path d="M6991 3483 c-16 -17 -11 -25 8 -14 7 5 12 13 10 19 -2 6 -10 4 -18
-5z"/>
<path d="M6900 3448 c-2 -5 -3 -13 -4 -18 0 -6 -8 -15 -16 -20 -11 -7 -11 -10
-2 -10 7 0 23 10 35 21 12 12 17 19 10 15 -6 -3 -14 0 -16 6 -3 7 -6 10 -7 6z"/>
<path d="M6688 4503 c7 -3 16 -2 19 1 4 3 -2 6 -13 5 -11 0 -14 -3 -6 -6z"/>
<path d="M6768 4493 c12 -2 30 -2 40 0 9 3 -1 5 -23 4 -22 0 -30 -2 -17 -4z"/>
<path d="M6843 4483 c9 -2 23 -2 30 0 6 3 -1 5 -18 5 -16 0 -22 -2 -12 -5z"/>
<path d="M6878 4363 c7 -3 16 -2 19 1 4 3 -2 6 -13 5 -11 0 -14 -3 -6 -6z"/>
<path d="M6940 4350 c14 -4 34 -8 45 -8 l20 -1 -20 9 c-11 5 -31 8 -45 8 l-25
0 25 -8z"/>
<path d="M7018 4333 c7 -3 16 -2 19 1 4 3 -2 6 -13 5 -11 0 -14 -3 -6 -6z"/>
<path d="M7611 3827 c-14 -14 -14 -44 -1 -52 15 -9 40 14 40 35 0 22 -24 32
-39 17z"/>
<path d="M2761 3813 c-1 -18 13 -23 29 -11 12 8 12 9 -2 5 -9 -3 -19 -1 -22 6
-3 9 -5 9 -5 0z"/>
<path d="M2051 3754 c0 -11 3 -14 6 -6 3 7 2 16 -1 19 -3 4 -6 -2 -5 -13z"/>
<path d="M4935 3710 c-3 -5 -1 -10 4 -10 6 0 11 5 11 10 0 6 -2 10 -4 10 -3 0
-8 -4 -11 -10z"/>
<path d="M2868 3683 c12 -2 30 -2 40 0 9 3 -1 5 -23 4 -22 0 -30 -2 -17 -4z"/>
<path d="M2973 3683 c9 -2 25 -2 35 0 9 3 1 5 -18 5 -19 0 -27 -2 -17 -5z"/>
<path d="M4865 3660 c3 -5 8 -10 11 -10 2 0 4 5 4 10 0 6 -5 10 -11 10 -5 0
-7 -4 -4 -10z"/>
<path d="M4910 3660 c0 -5 5 -10 10 -10 6 0 10 5 10 10 0 6 -4 10 -10 10 -5 0
-10 -4 -10 -10z"/>
<path d="M7171 3229 c-1 -9 7 -23 17 -30 15 -12 16 -12 6 1 -6 8 -14 22 -17
30 -5 13 -6 12 -6 -1z"/>
<path d="M5076 3174 c-5 -14 -4 -15 9 -4 17 14 19 20 6 20 -5 0 -12 -7 -15
-16z"/>
<path d="M5094 3154 c-18 -14 -18 -15 4 -4 12 6 22 13 22 15 0 8 -5 6 -26 -11z"/>
<path d="M7183 3123 c9 -2 25 -2 35 0 9 3 1 5 -18 5 -19 0 -27 -2 -17 -5z"/>
<path d="M4890 3081 c0 -15 38 -33 58 -28 13 4 11 5 -5 6 -12 0 -29 8 -37 17
-9 8 -16 11 -16 5z"/>
<path d="M7391 3086 c2 -2 22 -6 44 -9 28 -5 34 -4 20 3 -19 8 -73 14 -64 6z"/>
<path d="M4427 2954 c-27 -14 -47 -28 -44 -31 5 -5 97 45 97 53 0 6 0 6 -53
-22z"/>
<path d="M7338 2973 c6 -2 18 -2 25 0 6 3 1 5 -13 5 -14 0 -19 -2 -12 -5z"/>
<path d="M4274 2904 c-18 -14 -18 -15 4 -4 12 6 22 13 22 15 0 8 -5 6 -26 -11z"/>
<path d="M6920 2905 c-19 -7 -28 -14 -20 -14 8 0 29 6 45 14 39 17 21 18 -25
0z"/>
<path d="M6810 2869 c-31 -13 -36 -18 -16 -14 37 8 95 33 76 34 -8 0 -35 -9
-60 -20z"/>
<path d="M5756 2561 c-4 -5 3 -7 14 -4 23 6 26 13 6 13 -8 0 -17 -4 -20 -9z"/>
</g>
</svg>
